name Walk10.mot
datacolumns 19
datarows 27
range 1.12000000 1.14600000
endheader

                time	   L_ground_force_vx	   L_ground_force_vy	   L_ground_force_vz	   L_ground_force_px	   L_ground_force_py	   L_ground_force_pz	   R_ground_force_vx	   R_ground_force_vy	   R_ground_force_vz	   R_ground_force_px	   R_ground_force_py	   R_ground_force_pz	   L_ground_torque_x	   L_ground_torque_y	   L_ground_torque_z	   R_ground_torque_x	   R_ground_torque_y	   R_ground_torque_z	
          1.12000000	          0.00000000	          0.00000000	          0.00000000	          0.00000000	          0.00000000	          0.00000000	          0.00000000	          0.00000000	          0.00000000	          0.00000000	          0.00000000	          0.00000000	          0.00000000	          0.00000000	          0.00000000	          0.00000000	          0.00000000	          0.00000000	
          1.12100000	          0.00000000	          0.00000000	          0.00000000	          0.00000000	          0.00000000	          0.00000000	          0.00000000	          0.00000000	          0.00000000	          0.00000000	          0.00000000	          0.00000000	          0.00000000	          0.00000000	          0.00000000	          0.00000000	          0.00000000	          0.00000000	
          1.12200000	          0.00000000	          0.00000000	          0.00000000	          0.00000000	          0.00000000	          0.00000000	          0.00000000	          0.00000000	          0.00000000	          0.00000000	          0.00000000	          0.00000000	          0.00000000	          0.00000000	          0.00000000	          0.00000000	          0.00000000	          0.00000000	
          1.12300000	          0.00000000	          0.00000000	          0.00000000	          0.00000000	          0.00000000	          0.00000000	          0.00000000	          0.00000000	          0.00000000	          0.00000000	          0.00000000	          0.00000000	          0.00000000	          0.00000000	          0.00000000	          0.00000000	          0.00000000	          0.00000000	
          1.12400000	          0.00000000	          0.00000000	          0.00000000	          0.00000000	          0.00000000	          0.00000000	        -10.64857691	         17.99730445	         -2.49587968	         -0.24581962	          0.00000000	          0.35314210	          0.00000000	          0.00000000	          0.00000000	          0.00000000	         -0.21854300	          0.00000000	
          1.12500000	          0.00000000	          0.00000000	          0.00000000	          0.00000000	          0.00000000	          0.00000000	        -16.62193143	         33.04605206	         -3.61424212	         -0.25058221	          0.00000000	          0.35457695	          0.00000000	          0.00000000	          0.00000000	          0.00000000	         -0.28511294	          0.00000000	
          1.12600000	          0.00000000	          0.00000000	          0.00000000	          0.00000000	          0.00000000	          0.00000000	        -23.42140276	         53.87125946	         -4.68670197	         -0.25372089	          0.00000000	          0.35652021	          0.00000000	          0.00000000	          0.00000000	          0.00000000	         -0.33072044	          0.00000000	
          1.12700000	          0.00000000	          0.00000000	          0.00000000	          0.00000000	          0.00000000	          0.00000000	        -30.61454462	         81.05498844	         -5.55171694	         -0.25571340	          0.00000000	          0.35834299	          0.00000000	          0.00000000	          0.00000000	          0.00000000	         -0.36047531	          0.00000000	
          1.12800000	          0.00000000	          0.00000000	          0.00000000	          0.00000000	          0.00000000	          0.00000000	        -37.63585402	        114.59200526	         -6.02150255	         -0.25684075	          0.00000000	          0.35975906	          0.00000000	          0.00000000	          0.00000000	          0.00000000	         -0.38256167	          0.00000000	
          1.12900000	          0.00000000	          0.00000000	          0.00000000	          0.00000000	          0.00000000	          0.00000000	        -43.78573232	        153.39584665	         -5.85950858	         -0.25737853	          0.00000000	          0.36077570	          0.00000000	          0.00000000	          0.00000000	          0.00000000	         -0.39826171	          0.00000000	
          1.13000000	          0.00000000	          0.00000000	          0.00000000	          0.00000000	          0.00000000	          0.00000000	        -48.42662306	        195.23945338	         -4.82741484	         -0.25754435	          0.00000000	          0.36145083	          0.00000000	          0.00000000	          0.00000000	          0.00000000	         -0.40547441	          0.00000000	
          1.13100000	          0.00000000	          0.00000000	          0.00000000	          0.00000000	          0.00000000	          0.00000000	        -51.20088253	        237.19998466	         -2.78584772	         -0.25747356	          0.00000000	          0.36186046	          0.00000000	          0.00000000	          0.00000000	          0.00000000	         -0.40134449	          0.00000000	
          1.13200000	          0.00000000	          0.00000000	          0.00000000	          0.00000000	          0.00000000	          0.00000000	        -52.11608206	        276.36527500	          0.23195634	         -0.25725316	          0.00000000	          0.36209744	          0.00000000	          0.00000000	          0.00000000	          0.00000000	         -0.38321387	          0.00000000	
          1.13300000	          0.00000000	          0.00000000	          0.00000000	          0.00000000	          0.00000000	          0.00000000	        -51.48121248	        310.42983777	          4.03574027	         -0.25695301	          0.00000000	          0.36224113	          0.00000000	          0.00000000	          0.00000000	          0.00000000	         -0.35011712	          0.00000000	
          1.13400000	          0.00000000	          0.00000000	          0.00000000	          0.00000000	          0.00000000	          0.00000000	        -49.76427031	        337.97478533	          8.35346838	         -0.25662210	          0.00000000	          0.36234261	          0.00000000	          0.00000000	          0.00000000	          0.00000000	         -0.30501446	          0.00000000	
          1.13500000	          0.00000000	          0.00000000	          0.00000000	          0.00000000	          0.00000000	          0.00000000	        -47.45441456	        358.48417108	         12.89491523	         -0.25628177	          0.00000000	          0.36241255	          0.00000000	          0.00000000	          0.00000000	          0.00000000	         -0.25454090	          0.00000000	
          1.13600000	          0.00000000	          0.00000000	          0.00000000	          0.00000000	          0.00000000	          0.00000000	        -44.96530308	        372.24459084	         17.38990669	         -0.25593779	          0.00000000	          0.36242745	          0.00000000	          0.00000000	          0.00000000	          0.00000000	         -0.20652872	          0.00000000	
          1.13700000	          0.00000000	          0.00000000	          0.00000000	          0.00000000	          0.00000000	          0.00000000	        -42.58663932	        380.20261854	         21.61852703	         -0.25558880	          0.00000000	          0.36235411	          0.00000000	          0.00000000	          0.00000000	          0.00000000	         -0.16949511	          0.00000000	
          1.13800000	          0.00000000	          0.00000000	          0.00000000	          0.00000000	          0.00000000	          0.00000000	        -40.49277146	        383.77870404	         25.42355835	         -0.25522781	          0.00000000	          0.36215977	          0.00000000	          0.00000000	          0.00000000	          0.00000000	         -0.15139483	          0.00000000	
          1.13900000	          0.00000000	          0.00000000	          0.00000000	          0.00000000	          0.00000000	          0.00000000	        -38.77643957	        384.62818161	         28.70785639	         -0.25485056	          0.00000000	          0.36183094	          0.00000000	          0.00000000	          0.00000000	          0.00000000	         -0.15631269	          0.00000000	
          1.14000000	          0.00000000	          0.00000000	          0.00000000	          0.00000000	          0.00000000	          0.00000000	        -37.47213279	        384.37441711	         31.43654839	         -0.25445792	          0.00000000	          0.36141645	          0.00000000	          0.00000000	          0.00000000	          0.00000000	         -0.18026216	          0.00000000	
          1.14100000	          0.00000000	          0.00000000	          0.00000000	          0.00000000	          0.00000000	          0.00000000	        -36.57557546	        384.39601418	         33.63273523	         -0.25405164	          0.00000000	          0.36102989	          0.00000000	          0.00000000	          0.00000000	          0.00000000	         -0.20912066	          0.00000000	
          1.14200000	          0.00000000	          0.00000000	          0.00000000	          0.00000000	          0.00000000	          0.00000000	        -36.05698110	        385.73344265	         35.34990440	         -0.25364018	          0.00000000	          0.36078419	          0.00000000	          0.00000000	          0.00000000	          0.00000000	         -0.22703581	          0.00000000	
          1.14300000	          0.00000000	          0.00000000	          0.00000000	          0.00000000	          0.00000000	          0.00000000	        -35.86675295	        389.08149775	         36.64228648	         -0.25323620	          0.00000000	          0.36070980	          0.00000000	          0.00000000	          0.00000000	          0.00000000	         -0.22938307	          0.00000000	
          1.14400000	          0.00000000	          0.00000000	          0.00000000	          0.00000000	          0.00000000	          0.00000000	        -35.95243556	        394.80153045	         37.55593825	         -0.25283695	          0.00000000	          0.36072289	          0.00000000	          0.00000000	          0.00000000	          0.00000000	         -0.22306745	          0.00000000	
          1.14500000	          0.00000000	          0.00000000	          0.00000000	          0.00000000	          0.00000000	          0.00000000	        -36.27830229	        402.91349391	         38.12639223	         -0.25242583	          0.00000000	          0.36071065	          0.00000000	          0.00000000	          0.00000000	          0.00000000	         -0.21716434	          0.00000000	
          1.14600000	          0.00000000	          0.00000000	          0.00000000	          0.00000000	          0.00000000	          0.00000000	        -36.82926170	        413.09889654	         38.36957502	         -0.25199666	          0.00000000	          0.36065333	          0.00000000	          0.00000000	          0.00000000	          0.00000000	         -0.21770217	          0.00000000	
